<svg width="50" height="50" viewBox="0 0 351 370" fill="none" xmlns="http://www.w3.org/2000/svg">
<path fill-rule="evenodd" clip-rule="evenodd" d="M237.231 1.44447C233.598 5.27409 226.305 23.2456 228.387 23.2456C229.716 23.2456 236.802 14.797 240.253 9.09965C243.762 3.30405 241.325 -2.86854 237.231 1.44447ZM145.927 22.1309C145.198 23.2912 145.129 23.8587 145.35 26.8939C145.488 28.7889 145.727 33.0168 145.881 36.2901C146.241 43.9635 147.653 46.2082 151.196 44.7377C153.595 43.7415 154.128 41.3763 153.017 36.6529C152.68 35.2209 152.124 32.0287 151.782 29.5591C150.677 21.5968 148.22 18.4796 145.927 22.1309ZM82.5688 49.1794C83.583 56.7556 93.6628 66.8429 96.5475 63.1673C98.141 61.1375 96.6233 58.4935 90.5202 52.6726C85.0693 47.4739 82.1705 46.2001 82.5688 49.1794ZM230.891 61.2105C212.676 64.8273 201.171 70.48 175.886 88.2367C171.771 91.1259 167.585 94.1701 166.584 95.0011C158.488 101.718 149.356 104.257 141.799 101.892C138.387 100.824 131.329 97.6329 123.915 93.8053C108.462 85.8268 83.9783 85.2958 69.3152 92.6217C56.7926 98.8773 39.8848 112.519 32.5441 122.288C25.0376 132.276 21.0478 132.79 18.5645 124.087C14.7273 110.642 9.99635 108.395 12.4513 121.184C12.875 123.389 13.7961 128.385 14.4988 132.287C15.2026 136.189 16.4907 143.029 17.3623 147.488C19.0316 156.029 20.6474 165.975 21.4108 172.417C21.6615 174.535 22.4714 178.64 23.2085 181.538C23.9466 184.436 24.7404 188.541 24.9729 190.659C25.7656 197.898 27.4936 207.883 28.6918 212.143C29.6432 215.527 29.9709 217.768 30.2914 223.087C30.7535 230.747 31.3035 233.894 33.2509 240.011C34.5229 244.006 34.6604 244.94 34.9111 251.247C35.2478 259.71 35.5411 262.099 37.7544 274.365C38.719 279.716 39.6249 285.37 39.7665 286.931C40.1811 291.498 40.8201 295.618 41.6532 299.092C42.0809 300.875 42.7058 305.425 43.0425 309.2C43.3792 312.977 43.909 317.72 44.2194 319.74C48.9261 350.362 49.1648 353.646 47.0516 358.733C43.6269 366.98 46.3751 369.647 55.8159 367.237C68.7368 363.937 72.4982 356.568 62.9604 353.239C56.8573 351.107 56.7643 350.925 53.7775 335.169C51.828 324.881 50.1031 312.731 50.1061 309.304C50.1092 306.705 49.0758 299.027 47.5864 290.579C46.0404 281.807 47.7866 275.341 53.4873 268.727C54.6228 267.411 56.374 265.131 57.378 263.66C59.9948 259.831 78.6407 248.811 87.5152 245.849C105.92 239.707 108.439 239.16 118.455 239.125C126.658 239.097 127.407 239.224 133.824 241.751C150.12 248.168 158.967 250.327 168.202 250.144C171.862 250.071 174.374 250.258 177.302 250.821C183.058 251.927 188.234 251.387 195.951 248.878C199.041 247.873 203.224 246.667 205.247 246.197C209.507 245.209 212.048 244.072 218.641 240.198C221.263 238.659 225.233 236.381 227.462 235.136C229.704 233.885 234.131 230.77 237.371 228.164C247.212 220.248 253.548 216.229 258.414 214.815C265.511 212.753 280.513 212.06 294.389 213.154C311.774 214.524 325.559 211.876 341.506 204.1C350.418 199.755 351.372 197.951 349.416 189.134C348.984 187.186 348.241 182.855 347.767 179.511C347.293 176.167 346.113 169.509 345.146 164.716C344.179 159.922 343.107 154.244 342.763 152.099C342.42 149.952 341.595 146.256 340.93 143.883C340.266 141.51 339.158 136.882 338.468 133.597C334.764 115.957 330.486 102.465 325.323 92.1464C324.15 89.8004 322.511 85.6961 321.681 83.0258C319.206 75.0555 317.354 73.9549 308.82 75.3818C301.634 76.5837 296.642 76.3881 289.091 74.6055C280.311 72.5331 278.228 71.8349 271.431 68.6863C259.552 63.1825 251.836 61.3311 239.991 61.1395C235.542 61.0676 231.447 61.1 230.891 61.2105ZM245.507 68.8667C251.675 70.0077 255.866 71.4539 264.35 75.3676C275.132 80.3413 278 81.5047 281.79 82.4421C288.064 83.9936 298.236 84.5023 304.75 83.5903C312.836 82.4583 314.949 84.6128 321.694 100.872C323.338 104.836 328.66 124.242 330.373 132.518C331.063 135.846 332.433 141.489 333.418 145.056C334.922 150.498 338.955 170.122 339.874 176.471C340.02 177.474 340.511 180.201 340.965 182.532C342.419 189.983 341.519 193.714 337.76 195.822C332.204 198.935 323.37 202.177 314.206 204.464L307.533 206.129L300.86 205.886C297.189 205.752 292.366 205.357 290.142 205.008C269.35 201.745 250.878 206.315 236.402 218.306C217.299 234.128 200.191 241.09 176.291 242.766C167.449 243.386 151.303 239.768 136.655 233.883C127.414 230.17 116.004 229.786 104.502 232.8C102.055 233.44 97.597 234.456 94.595 235.056C79.2585 238.123 63.4892 247.674 58.829 256.718C57.5155 259.265 56.4296 260.778 55.1657 261.815C54.1789 262.627 52.7249 264.265 51.9352 265.457C47.8534 271.621 43.2326 270.361 42.2346 262.812C42.1022 261.809 41.3236 259.059 40.5046 256.7L39.0152 252.412L39.6967 248.188C40.3378 244.214 39.8888 232.105 38.993 229.183C38.8878 228.84 38.5188 226.188 38.174 223.29C37.8282 220.392 37.0972 215.74 36.5502 212.953C35.2398 206.286 33.6715 196.369 33.0881 191.064C32.8313 188.723 32.1053 184.801 31.4754 182.349C30.8465 179.896 29.9577 175.336 29.5017 172.215C29.0447 169.093 28.1377 164.351 27.4855 161.675C23.3723 144.808 24.0902 142.224 36.5502 129.044C38.3418 127.149 41.6027 123.592 43.7978 121.14C50.9332 113.164 59.3831 106.893 69.7197 101.9C86.8297 93.635 103.771 94.2471 124.724 103.889C148.78 114.957 155.173 114.219 176.633 97.8913C193.573 85.003 206.503 77.4511 222.268 71.237C230.284 68.0772 237.35 67.3567 245.507 68.8667ZM9.86187 92.7098C-1.03386 96.2608 -2.81949 104.076 6.60812 106.958C11.5444 108.467 10.9336 108.673 18.6727 102.898C26.7656 96.8597 20.25 89.3251 9.86187 92.7098ZM189.435 118.376C175.27 120.188 160.249 127.002 150.552 136.014C136.653 148.93 131.224 162.979 133.011 181.394C133.863 190.166 142.991 204.712 151.432 210.749C169.34 223.557 200.7 222.345 219.611 208.114C227.974 201.821 232.421 196.189 236.856 186.275C243.02 172.497 243.296 165.364 238.331 148.189C233.074 130.009 209.735 115.779 189.435 118.376ZM171.347 131.702C172.768 132.698 172.494 134.483 170.259 138.792C167.085 144.917 167.179 146.842 170.819 150.231C172.077 151.403 172.959 152.718 173.599 154.379L174.536 156.811L176.611 156.756C182.476 156.602 184.099 152.393 179.52 149.211C176.712 147.258 175.749 145.497 175.717 142.256C175.657 135.863 180.586 132.976 188.163 134.966C192.347 136.066 194.251 135.925 198.134 134.23C204.115 131.618 214.437 131.1 218.573 133.205C231.884 139.977 227.818 155.599 214.171 150.123C209.408 148.211 206.584 148.868 204.226 152.436C202.422 155.165 201.964 160.765 203.401 162.501C203.671 162.828 203.742 163.094 203.559 163.094C203.376 163.094 203.445 163.313 203.712 163.581C204.255 164.125 204.364 165.385 203.888 165.594C203.393 165.81 201.528 171.724 199.957 178.067C196.851 190.597 192.739 193.297 187.454 186.279C179.436 175.626 172.294 168.852 170.008 169.732C168.378 170.359 169.997 176.019 172.8 179.495C173.526 180.396 175.47 183.139 177.118 185.592C182.908 194.207 189.802 200.387 193.623 200.387C203.555 200.387 212.445 177.452 206.492 167.183L204.572 163.87L205.46 162.57C208.752 157.757 211.266 156.844 215.522 158.915C218.973 160.595 222.224 160.467 225.773 158.512C232.638 154.73 234.351 157.806 232.162 169.985C231.078 176.013 229.01 177.776 228.358 173.228C227.311 165.926 216.331 168.155 216.331 175.669C216.331 178.084 217.48 180.259 220.577 183.707C224.971 188.595 224.449 190.678 217.342 196.616C215.117 198.476 212.296 200.832 211.073 201.852C202.955 208.624 183.908 212.474 172.853 209.58C164.865 207.487 163.264 205.193 166.304 200.198C170.678 193.012 168.759 182.101 161.734 174.216C157.249 169.182 156.666 166.912 158.427 161.329C160.188 155.749 159.496 152.451 155.901 149.288C153.215 146.924 154.532 142.673 159.436 137.87C164.877 132.539 169.287 130.256 171.347 131.702ZM152.429 151.136C153.876 152.884 153.101 157.986 150.792 161.911C146.89 168.544 147.305 170.551 154.275 178.7C159.572 184.894 160.033 186.15 160.158 194.734C160.262 201.799 160.033 202.34 156.791 202.706C150.29 203.44 140.773 189.352 139.493 177.095C138.292 165.606 141.8 154.064 147.373 151.164C148.934 150.352 151.766 150.337 152.429 151.136ZM267.702 281.169C264.804 282.638 266.096 286.149 271.083 290.357C274.553 293.286 275.827 294.853 278.512 299.497C281.537 304.727 284.442 306.868 285.963 304.986C287.89 302.601 286.399 298.313 281.445 291.998C273.312 281.63 270.76 279.618 267.702 281.169ZM123.018 296.153C121.623 297.675 119.363 302.625 117.281 308.718C116.195 311.895 114.46 316.555 113.426 319.072C109.316 329.077 111.016 333.75 116.659 327.953C119.684 324.847 120.189 323.611 123.161 312.063C126.576 298.791 126.518 292.334 123.018 296.153ZM194.24 301.947C193.409 303.217 193.601 307.926 194.835 316.522C195.701 322.566 196.471 339.352 196.385 350.37C196.301 361.247 198.034 363.864 202.477 359.567C205.49 356.653 205.544 356.287 205.04 342.256C204.636 331.039 204.494 329.52 203.389 324.566C202.724 321.585 201.908 316.687 201.576 313.683C201.243 310.677 200.61 307.188 200.168 305.928C198.596 301.445 195.797 299.565 194.24 301.947Z" fill="#5CAF96"/>
<path d="M249.262 179.588C249.262 214.106 220.832 242.088 185.762 242.088C150.692 242.088 122.262 214.106 122.262 179.588C122.262 145.071 150.692 117.088 185.762 117.088C220.832 117.088 249.262 145.071 249.262 179.588Z" fill="#5CAF96"/>
<path fill-rule="evenodd" clip-rule="evenodd" d="M229.662 78.4934C217.857 80.1644 194.59 92.4344 176.278 106.645C161.068 118.449 150.378 122.268 139.156 119.908C135.404 119.119 133.1 118.224 122.862 113.583C110.002 107.752 107.595 107.082 96.0239 106.105C83.0799 105.012 74.4079 107.481 61.0259 116.071C51.4489 122.219 45.0259 128.329 35.2349 140.608C27.1519 150.745 27.1029 151.034 30.8339 166.888C31.3779 169.198 32.1939 173.518 32.6479 176.488C33.1019 179.458 33.9109 183.508 34.4469 185.488C34.9819 187.468 35.7109 191.338 36.0649 194.088C37.2529 203.297 38.6579 211.766 39.8399 216.848C40.4859 219.62 41.5649 226.028 42.2389 231.088C42.9129 236.148 43.6439 241.6 43.8629 243.204C44.0829 244.808 44.2619 247.238 44.2629 248.604V251.088L44.9629 249.712C46.0999 247.473 46.4119 247.566 48.9499 250.908C52.1289 255.094 52.3269 258.072 49.6189 260.958C48.7989 261.833 48.6949 262.069 49.2619 261.771C50.3399 261.203 52.9979 258.35 54.8029 255.824C60.5889 247.725 78.4369 237.642 91.8619 234.89C94.1719 234.416 98.4229 233.424 101.309 232.685C114.888 229.207 124.206 229.57 136.405 234.052C141.604 235.963 146.628 237.643 152.062 239.288C176.54 246.701 205.413 239.7 228.662 220.714C230.752 219.008 233.902 216.752 235.662 215.702C237.422 214.652 240.164 212.984 241.756 211.995C245.362 209.753 252.134 206.707 255.283 205.909C261.561 204.319 277.297 203.626 283.862 204.652C290.113 205.629 302.624 205.926 305.662 205.17C318.02 202.095 324.131 200.135 329.121 197.645C333.597 195.411 333.962 194.002 332.297 185.365C331.632 181.913 330.615 176.388 330.038 173.088C328.866 166.387 326.494 156.052 324.666 149.688C324.002 147.378 322.902 142.878 322.22 139.688C317.664 118.358 310.107 96.7214 306.35 94.2484C305.39 93.6174 304.153 93.5254 295.862 93.4694C280.487 93.3654 278.061 92.8194 262.099 85.8794C246.479 79.0874 238.424 77.2534 229.662 78.4934ZM123.062 94.6894C123.062 94.9954 129.685 98.6494 133.473 100.431C141.485 104.202 145.139 104.81 150.12 103.204L152.862 102.319L148.862 102.05C145.766 101.842 144.173 101.505 141.811 100.559C138.696 99.3104 135.588 98.4054 131.189 97.4684C129.828 97.1784 127.443 96.4074 125.889 95.7534C124.334 95.1004 123.062 94.6214 123.062 94.6894ZM313.839 111.919C314.833 114.576 314.927 117.101 314.045 117.439C313.29 117.729 312.127 115.219 311.412 111.758C310.442 107.061 312.062 107.169 313.839 111.919ZM36.8619 114.516C34.2219 116.481 30.6759 119.528 28.9819 121.288C24.8889 125.54 23.8539 125.54 21.2289 121.287C20.4149 119.967 19.7049 118.888 19.6509 118.888C19.5979 118.888 20.0719 120.553 20.7049 122.588C23.1069 130.313 23.9819 130.38 29.8399 123.29C31.6469 121.104 35.1039 117.418 37.5229 115.101C39.9409 112.784 41.8609 110.901 41.7909 110.916C41.7199 110.931 39.5019 112.551 36.8619 114.516ZM201.72 120.273C225.708 127.099 238.121 140.202 242.091 162.888C246.235 186.57 229.164 214.488 205.451 222.806C185.362 229.853 168.167 229.244 151.942 220.91C143.473 216.56 134.722 206.331 129.265 194.405C125.4 185.959 125.774 170.268 130.086 159.967C141.365 133.021 177.043 113.252 201.72 120.273ZM206.462 141.461C205.362 141.773 202.158 142.762 199.343 143.658C193.455 145.533 190.572 145.729 185.219 144.62C178.883 143.306 176.891 146.542 181.404 150.819C187.135 156.251 186.416 160.416 178.851 165.621C174.787 168.416 174.105 170.663 176.362 173.817C178.356 176.603 187.012 186.437 188.095 187.147C191.747 189.54 193.827 183.931 194.273 170.488C194.63 159.716 195.208 157.646 198.999 153.572C202.553 149.754 206.331 148.88 212.187 150.523C217.611 152.045 220.522 150.036 218.496 146.168C216.392 142.151 211.195 140.119 206.462 141.461ZM143.076 182.462C141.358 185.672 144.191 193.093 149.074 198.173C154.898 204.231 155.351 192.941 149.555 186.225C146.479 182.661 143.802 181.106 143.076 182.462Z" fill="#F9F59F"/>
<path fill-rule="evenodd" clip-rule="evenodd" d="M234.133 8.1754C230.539 11.9544 223.327 29.6884 225.386 29.6884C226.7 29.6884 233.708 21.3514 237.121 15.7294C240.592 10.0104 238.182 3.9194 234.133 8.1754ZM143.832 28.5884C143.111 29.7334 143.043 30.2934 143.261 33.2884C143.398 35.1584 143.634 39.3304 143.786 42.5604C144.142 50.1324 145.539 52.3474 149.043 50.8964C151.416 49.9134 151.943 47.5794 150.844 42.9184C150.511 41.5054 149.961 38.3554 149.623 35.9184C148.53 28.0614 146.1 24.9854 143.832 28.5884ZM81.1699 55.2794C82.1729 62.7554 92.1419 72.7094 94.9949 69.0824C96.5709 67.0794 95.0699 64.4704 89.0339 58.7264C83.6429 53.5964 80.7759 52.3394 81.1699 55.2794ZM227.862 67.1514C209.847 70.7204 198.469 76.2984 173.462 93.8204C169.392 96.6714 165.252 99.6754 164.262 100.495C156.255 107.123 147.223 109.629 139.749 107.295C136.375 106.241 129.394 103.092 122.062 99.3154C106.779 91.4424 82.5639 90.9184 68.0619 98.1474C55.6769 104.32 38.9549 117.781 31.6949 127.421C24.2709 137.277 20.3249 137.784 17.8689 129.196C14.0739 115.929 9.39487 113.712 11.8229 126.332C12.2419 128.508 13.1529 133.438 13.8479 137.288C14.5439 141.138 15.8179 147.888 16.6799 152.288C18.3309 160.716 19.9289 170.531 20.6839 176.888C20.9319 178.978 21.7329 183.028 22.4619 185.888C23.1919 188.748 23.9769 192.798 24.2069 194.888C24.9909 202.032 26.6999 211.885 27.8849 216.088C28.8259 219.428 29.1499 221.639 29.4669 226.888C29.9239 234.447 30.4679 237.552 32.3939 243.588C33.6519 247.53 33.7879 248.452 34.0359 254.676C34.3689 263.027 34.6589 265.384 36.8479 277.488C37.8019 282.768 38.6979 288.348 38.8379 289.888C39.2479 294.395 39.8799 298.46 40.7039 301.888C41.1269 303.648 41.7449 308.137 42.0779 311.863C42.4109 315.59 42.9349 320.27 43.2419 322.263C47.8969 352.48 48.1329 355.721 46.0429 360.741C42.6559 368.879 45.3739 371.511 54.7109 369.132C67.4899 365.876 71.2099 358.604 61.7769 355.319C55.7409 353.216 55.6489 353.036 52.6949 337.488C50.7669 327.336 49.0609 315.347 49.0639 311.965C49.0669 309.401 48.0449 301.824 46.5719 293.488C45.0429 284.832 46.7699 278.451 52.4079 271.925C53.5309 270.626 55.2629 268.376 56.2559 266.925C58.8439 263.146 77.2849 252.272 86.0619 249.349C104.265 243.288 106.756 242.748 116.662 242.714C124.775 242.686 125.515 242.812 131.862 245.305C147.979 251.637 156.729 253.768 165.862 253.587C169.482 253.515 171.966 253.7 174.862 254.255C180.555 255.347 185.674 254.814 193.306 252.338C196.362 251.346 200.499 250.156 202.5 249.692C206.713 248.717 209.226 247.595 215.747 243.773C218.34 242.254 222.266 240.006 224.471 238.778C226.688 237.543 231.067 234.469 234.271 231.898C244.004 224.086 250.27 220.12 255.083 218.725C262.102 216.69 276.939 216.007 290.662 217.086C307.856 218.438 321.49 215.825 337.262 208.152C346.076 203.864 347.019 202.084 345.085 193.384C344.657 191.461 343.923 187.188 343.454 183.888C342.985 180.588 341.818 174.018 340.862 169.288C339.905 164.558 338.845 158.955 338.505 156.838C338.166 154.72 337.35 151.072 336.692 148.731C336.035 146.389 334.939 141.822 334.257 138.581C330.594 121.174 326.363 107.86 321.257 97.6784C320.096 95.3634 318.475 91.3134 317.655 88.6784C315.207 80.8134 313.375 79.7274 304.935 81.1354C297.828 82.3214 292.891 82.1284 285.423 80.3694C276.739 78.3244 274.679 77.6354 267.957 74.5284C256.208 69.0974 248.577 67.2704 236.862 67.0814C232.462 67.0104 228.412 67.0424 227.862 67.1514ZM242.318 74.7064C248.418 75.8324 252.563 77.2594 260.954 81.1214C271.617 86.0294 274.454 87.1774 278.202 88.1024C284.407 89.6334 294.467 90.1354 300.91 89.2354C308.907 88.1184 310.997 90.2444 317.667 106.288C319.293 110.2 324.557 129.349 326.251 137.516C326.933 140.8 328.288 146.368 329.263 149.888C330.75 155.258 334.739 174.623 335.648 180.888C335.792 181.878 336.278 184.569 336.727 186.869C338.165 194.221 337.275 197.903 333.557 199.983C328.062 203.055 319.325 206.254 310.262 208.511L303.662 210.154L297.062 209.914C293.432 209.782 288.662 209.392 286.462 209.048C265.899 205.828 247.63 210.338 233.313 222.17C214.42 237.783 197.5 244.653 173.862 246.307C165.117 246.919 149.149 243.348 134.662 237.541C125.522 233.877 114.238 233.498 102.862 236.472C100.442 237.104 96.0329 238.107 93.0639 238.699C77.8959 241.725 62.2999 251.15 57.6909 260.074C56.3919 262.588 55.3179 264.081 54.0679 265.104C53.0919 265.905 51.6539 267.522 50.8729 268.698C46.8359 274.78 42.2659 273.537 41.2789 266.088C41.1479 265.098 40.3779 262.384 39.5679 260.057L38.0949 255.825L38.7689 251.657C39.4029 247.736 38.9589 235.787 38.0729 232.903C37.9689 232.565 37.6039 229.948 37.2629 227.088C36.9209 224.228 36.1979 219.638 35.6569 216.888C34.3609 210.309 32.8099 200.523 32.2329 195.288C31.9789 192.978 31.2609 189.108 30.6379 186.688C30.0159 184.268 29.1369 179.768 28.6859 176.688C28.2339 173.608 27.3369 168.928 26.6919 166.288C22.6239 149.644 23.3339 147.094 35.6569 134.088C37.4289 132.218 40.6539 128.708 42.8249 126.288C49.8819 118.418 58.2389 112.23 68.4619 107.303C85.3839 99.1474 102.139 99.7514 122.862 109.265C146.654 120.187 152.976 119.459 174.2 103.347C190.954 90.6294 203.742 83.1774 219.334 77.0454C227.262 73.9274 234.25 73.2164 242.318 74.7064ZM9.26187 98.2344C-1.51413 101.738 -3.28013 109.45 6.04387 112.294C10.9259 113.783 10.3219 113.986 17.9759 108.288C25.9799 102.329 19.5359 94.8944 9.26187 98.2344ZM186.862 123.561C172.852 125.349 157.997 132.073 148.406 140.966C134.66 153.711 129.29 167.574 131.058 185.746C131.9 194.402 140.928 208.756 149.276 214.713C166.988 227.352 198.003 226.156 216.706 212.113C224.977 205.903 229.375 200.345 233.762 190.562C239.858 176.967 240.131 169.928 235.22 152.98C230.021 135.04 206.939 120.998 186.862 123.561ZM168.973 136.711C170.378 137.694 170.107 139.455 167.897 143.707C164.757 149.751 164.85 151.651 168.45 154.995C169.695 156.151 170.567 157.449 171.2 159.088L172.127 161.488L174.179 161.434C179.979 161.282 181.584 157.128 177.056 153.988C174.279 152.061 173.326 150.323 173.295 147.125C173.235 140.817 178.11 137.968 185.604 139.932C189.742 141.017 191.625 140.878 195.465 139.205C201.38 136.628 211.589 136.117 215.68 138.194C228.844 144.876 224.823 160.292 211.326 154.888C206.615 153.002 203.822 153.65 201.49 157.171C199.706 159.864 199.253 165.39 200.674 167.103C200.941 167.425 201.012 167.688 200.831 167.688C200.65 167.688 200.718 167.904 200.982 168.168C201.519 168.705 201.627 169.949 201.156 170.155C200.666 170.368 198.822 176.204 197.268 182.463C194.196 194.827 190.129 197.492 184.903 190.566C176.973 180.054 169.909 173.37 167.648 174.238C166.036 174.857 167.637 180.442 170.41 183.872C171.128 184.761 173.05 187.468 174.68 189.888C180.407 198.39 187.225 204.488 191.004 204.488C200.827 204.488 209.619 181.856 203.731 171.723L201.832 168.454L202.711 167.171C205.967 162.421 208.453 161.52 212.662 163.564C216.075 165.222 219.29 165.096 222.8 163.166C229.59 159.434 231.284 162.47 229.119 174.488C228.047 180.436 226.002 182.176 225.357 177.688C224.322 170.482 213.462 172.682 213.462 180.097C213.462 182.48 214.599 184.626 217.662 188.028C222.007 192.852 221.491 194.907 214.462 200.767C212.262 202.602 209.472 204.927 208.262 205.934C200.233 212.616 181.396 216.415 170.462 213.559C162.562 211.494 160.978 209.23 163.985 204.301C168.311 197.21 166.413 186.444 159.465 178.663C155.029 173.695 154.453 171.455 156.195 165.946C157.936 160.44 157.252 157.186 153.696 154.064C151.04 151.732 152.342 147.537 157.192 142.797C162.574 137.537 166.935 135.284 168.973 136.711ZM150.262 155.888C151.694 157.613 150.927 162.647 148.643 166.52C144.784 173.066 145.195 175.046 152.088 183.088C157.327 189.2 157.783 190.439 157.907 198.91C158.009 205.881 157.783 206.415 154.577 206.776C148.147 207.501 138.735 193.599 137.469 181.504C136.281 170.167 139.75 158.777 145.262 155.916C146.806 155.114 149.607 155.099 150.262 155.888ZM264.269 284.202C261.403 285.652 262.68 289.116 267.613 293.269C271.044 296.159 272.304 297.705 274.96 302.288C277.952 307.449 280.825 309.561 282.329 307.704C284.235 305.351 282.76 301.119 277.861 294.888C269.817 284.657 267.293 282.672 264.269 284.202ZM121.175 298.988C119.795 300.49 117.56 305.374 115.501 311.387C114.427 314.522 112.711 319.12 111.688 321.604C107.623 331.477 109.305 336.088 114.886 330.368C117.877 327.303 118.377 326.083 121.316 314.688C124.694 301.591 124.636 295.22 121.175 298.988ZM191.614 304.705C190.792 305.959 190.982 310.605 192.202 319.088C193.059 325.052 193.82 341.616 193.735 352.488C193.652 363.222 195.366 365.804 199.76 361.564C202.74 358.688 202.794 358.327 202.295 344.482C201.896 333.413 201.755 331.914 200.662 327.025C200.005 324.084 199.198 319.251 198.869 316.286C198.54 313.32 197.914 309.877 197.477 308.634C195.922 304.21 193.154 302.355 191.614 304.705Z" fill="#1E1E1E"/>
</svg>
