<svg width="872" height="228" viewBox="0 0 872 228" fill="none" xmlns="http://www.w3.org/2000/svg">
<path d="M45 43C303.06 43 561.12 43 827 43C827 89.86 827 136.72 827 185C568.94 185 310.88 185 45 185C45 138.14 45 91.28 45 43ZM50 48C50 91.56 50 135.12 50 180C231.17 180 412.34 180 599 180C606.144 160.999 606.144 160.999 613.094 141.93C613.753 140.095 614.412 138.26 615.072 136.426C615.753 134.53 616.433 132.635 617.113 130.739C619.5 124.087 621.893 117.438 624.289 110.789C624.529 110.123 624.769 109.458 625.016 108.772C630.608 93.2627 636.319 77.7976 642.072 62.3472C642.577 60.9888 642.577 60.9888 643.092 59.6029C643.717 57.9244 644.342 56.2465 644.97 54.5692C646.379 51.3656 646.379 51.3656 647 48C449.99 48 252.98 48 50 48ZM652 48C644.878 67.4242 637.779 86.8548 630.75 106.312C625.634 120.472 620.518 134.632 615.309 148.758C614.952 149.726 614.596 150.694 614.228 151.691C612.581 156.165 610.928 160.636 609.267 165.105C608.692 166.662 608.117 168.22 607.543 169.777C607.282 170.474 607.02 171.172 606.751 171.89C605.702 174.747 605 176.928 605 180C676.61 180 748.22 180 822 180C822 136.44 822 92.88 822 48C765.9 48 709.8 48 652 48Z" fill="#014D4A"/>
<path d="M450 110C450.66 112.64 451.32 115.28 452 118C452.82 117.783 453.64 117.567 454.484 117.344C455.562 117.065 456.64 116.787 457.75 116.5C458.817 116.222 459.885 115.943 460.984 115.656C464 115 464 115 468 115C468.33 125.23 468.66 135.46 469 146C473.769 147.035 473.769 147.035 478 146C477.977 142.79 477.9 139.584 477.812 136.375C477.807 135.471 477.801 134.568 477.795 133.637C477.588 127.349 476.565 124.383 472 120C474.748 119.16 477.498 118.328 480.25 117.5C481.027 117.262 481.805 117.023 482.605 116.777C483.36 116.552 484.114 116.326 484.891 116.094C485.582 115.884 486.273 115.675 486.985 115.459C489 115 489 115 493 115C493 124.9 493 134.8 493 145C495.64 144.34 498.28 143.68 501 143C501.961 147.192 501.961 147.192 501 150C496.581 154.299 492.29 158 486 158C482 152.889 482 152.889 482 150C481.515 150.41 481.031 150.82 480.531 151.242C476.08 154.82 471.912 158.022 466 158C461.23 156.849 458.05 155.17 454.762 151.504C452.003 146.017 452.52 140.649 452.6 134.611C452.539 128.867 452.539 128.867 449.734 123.93C447.24 122.17 445.647 121.239 442.688 120.688C440.862 120.347 440.862 120.347 439 120C439.825 120.454 440.65 120.908 441.5 121.375C444.215 124.226 444.517 124.979 444.812 128.75C444.583 133.059 443.462 135.322 440.562 138.5C436.407 142.187 432.473 143.493 427 144C427 144.66 427 145.32 427 146C428.736 146.186 428.736 146.186 430.508 146.375C444.407 148.138 444.407 148.138 448.062 152.562C450.62 157.225 451.469 161.85 450 167C446.428 172.675 441.446 176.062 434.969 177.602C425.733 178.841 414.4 179.643 406 175C403.605 172.931 402.1 170.976 401 168C401.071 163.835 401.749 160.506 404 157C406.383 155.516 406.383 155.516 409.125 154.25C410.035 153.822 410.945 153.394 411.883 152.953C412.581 152.639 413.28 152.324 414 152C412.35 151.34 410.7 150.68 409 150C409 148.68 409 147.36 409 146C410.65 145.34 412.3 144.68 414 144C413.278 143.278 412.556 142.556 411.812 141.812C410.884 140.884 409.956 139.956 409 139C408.072 138.299 407.144 137.597 406.188 136.875C403.319 133.105 403.113 130.463 403.309 125.797C404.705 120.147 409.141 116.87 413.84 113.797C416.884 112.674 419.578 112.774 422.812 112.812C424.062 112.824 425.311 112.836 426.598 112.848C430 113 430 113 433.75 113.75C438.044 114.08 440.9 112.681 444.766 110.91C447 110 447 110 450 110ZM423 120C420.098 123.831 419.165 127.221 419 132C419.773 134.526 420.791 136.631 422 139C422.99 139 423.98 139 425 139C427.356 135.829 428.91 132.964 429 129C427.878 125.89 426.496 122.947 425 120C424.34 120 423.68 120 423 120ZM417.812 158.062C415.914 160.807 415.914 160.807 415.375 163.5C416.342 167.366 417.737 168.716 421 171C426.129 171.812 430.456 171.613 435 169C434.436 163.177 434.436 163.177 432 158C426.922 155.899 422.501 155.029 417.812 158.062Z" fill="#014D4A"/>
<path d="M282 98C282 113.51 282 129.02 282 145C283.65 144.34 285.3 143.68 287 143C287.99 143 288.98 143 290 143C289.896 142.045 289.791 141.09 289.684 140.105C289.207 132.516 289.209 127.886 294.188 121.688C297.718 117.771 300.616 115.305 305.985 114.821C308.306 114.731 310.614 114.727 312.938 114.75C313.723 114.742 314.509 114.735 315.318 114.727C319.87 114.742 323.843 114.943 328 117C330.154 120.116 330.868 123.232 331 127C329.745 130.521 327.934 132.709 325 135C322.03 136.322 319.222 136.706 316 137C315.002 137.107 314.005 137.214 312.977 137.324C310.319 137.587 307.664 137.811 305 138C305.361 138.554 305.722 139.109 306.094 139.68C306.79 140.766 306.79 140.766 307.5 141.875C308.196 142.954 308.196 142.954 308.906 144.055C310 146 310 146 310 148C313.185 149.388 313.185 149.388 317 150C321.851 147.624 325.309 143.867 329 140C330.32 140.66 331.64 141.32 333 142C332.401 145.847 330.6 148.126 328.188 151.125C327.5 151.994 326.813 152.863 326.106 153.758C323.497 156.536 321.615 157.775 317.844 158.301C311.058 158.335 304.194 157.962 298 155C295.088 151.95 292.978 148.713 291 145C290.945 145.736 290.889 146.472 290.832 147.23C289.7 150.999 287.873 152.072 284.688 154.312C283.722 155.01 282.757 155.707 281.762 156.426C279 158 279 158 275 158C274.01 155.69 273.02 153.38 272 151C271.576 151.505 271.152 152.011 270.715 152.531C265.941 157.819 265.941 157.819 261.75 158.625C260.513 158.419 259.275 158.213 258 158C257.14 157.887 256.28 157.773 255.395 157.656C248.677 156.396 244.403 153.885 240.426 148.277C237.509 141.573 237.349 134.1 239 127C241.55 121.727 244.486 118.049 249.949 115.77C252.809 115.048 255.247 114.701 258.188 114.688C259.027 114.671 259.866 114.654 260.731 114.637C263.44 115.07 264.302 115.903 266 118C266.343 113.972 266.343 113.972 266 110C263.625 107.124 263.625 107.124 261 105C261 104.34 261 103.68 261 103C263.748 102.16 266.498 101.328 269.25 100.5C270.027 100.262 270.805 100.023 271.606 99.7773C272.36 99.5518 273.114 99.3262 273.891 99.0938C274.582 98.8843 275.273 98.6748 275.985 98.459C278 98 278 98 282 98ZM308.813 123.562C306.501 126.671 306.293 129.188 306 133C310.389 132.335 313.981 130.812 318 129C318.25 126.584 318.25 126.584 318 124C314.442 121.628 312.433 120.977 308.813 123.562ZM256.188 125.75C252.874 130.673 253.05 135.24 254 141C255.311 144.2 256.45 145.507 259 148C261.59 149.001 261.59 149.001 264 148C268.185 142.477 267.649 136.637 267 130C266.249 127.59 265.436 126.094 264 124C260.566 123.509 259.169 123.895 256.188 125.75Z" fill="#014D4A"/>
<path d="M524.5 114.75C525.233 114.742 525.967 114.735 526.723 114.727C531.142 114.742 534.956 115.023 539 117C541.514 120.726 542.307 124.895 541.66 129.332C540.459 132.111 539.507 133.252 537 135C530.682 137.126 523.638 138 517 138C520.018 144.479 520.018 144.479 525.313 149.062C526.199 149.372 527.086 149.681 528 150C531.52 147.821 534.328 145.748 537.125 142.688C538.074 141.801 539.023 140.914 540 140C541.345 140.284 542.678 140.625 544 141C546.682 140.614 546.682 140.614 549 140C549.727 141.083 549.727 141.083 550.469 142.188C554.023 147.471 554.023 147.471 559.207 150.805C561.602 150.977 561.602 150.977 565 150C567.053 148.158 567.053 148.158 568 146C567.158 145.747 566.316 145.495 565.449 145.234C561.696 143.891 558.28 142.189 554.813 140.25C554.197 139.928 553.581 139.605 552.947 139.273C548.633 136.861 546.629 134.663 545 130C544.809 126.668 545.493 123.975 547 121C549.448 118.82 552.041 117.381 555 116C555.66 115.67 556.32 115.34 557 115C562.115 114.821 566.957 115.153 572.02 115.879C574.212 116.137 574.212 116.137 577 115C577.99 120.61 578.98 126.22 580 132C575 132 575 132 572.98 130.102C572.389 129.284 571.797 128.467 571.188 127.625C570.583 126.813 569.978 126.001 569.355 125.164C568 123 568 123 568 121C565.008 121.775 565.008 121.775 562 123C561.67 123.99 561.34 124.98 561 126C561.524 126.261 562.049 126.522 562.589 126.791C564.989 128.003 567.369 129.251 569.75 130.5C570.575 130.91 571.4 131.32 572.25 131.742C577.272 134.415 580.308 136.775 582.507 142.118C583.463 145.765 582.244 147.784 580.516 150.945C577.879 154.52 575.228 156.586 571 158C565.314 158.718 559.957 158.41 554.438 156.875C552.736 156.442 552.736 156.442 551 156C550.01 156.66 549.02 157.32 548 158C547.01 153.38 546.02 148.76 545 144C543.804 145.753 542.608 147.506 541.375 149.312C538.37 153.716 536.01 156.062 531 158C524.083 159.155 516.292 158.029 510 155C505.723 151.838 502.783 148.324 501.541 143.048C500.363 135.074 501.005 128.341 505.625 121.562C510.807 115.061 516.711 114.668 524.5 114.75ZM521.25 121.75C517.982 125.018 517.628 128.53 517 133C521.609 132.28 525.672 130.687 530 129C530 127.35 530 125.7 530 124C525.904 121.332 525.904 121.332 521.25 121.75Z" fill="#014D4A"/>
<path d="M117 99C117.338 101.229 117.67 103.458 118 105.688C118.186 106.929 118.371 108.17 118.562 109.449C118.921 112.359 119.089 115.077 119 118C117.68 118 116.36 118 115 118C114.67 125.59 114.34 133.18 114 141C110.504 139.252 109.495 138.628 107.188 135.875C104.644 133.221 104.16 133.021 100.25 132.5C96.9216 132.684 96.9216 132.684 95 135C94.7179 138.323 94.7179 138.323 94.8125 142.063C94.8189 143.332 94.8254 144.602 94.832 145.91C94.6481 148.871 94.6481 148.871 96 150C100.873 150.939 105.165 151.207 110 150C112.852 146.779 114.539 143.698 116.352 139.844C117.168 138.436 117.168 138.436 118 137C119.32 137 120.64 137 122 137C121.693 140.271 121.379 143.542 121.062 146.813C120.975 147.741 120.888 148.67 120.799 149.627C120.712 150.52 120.625 151.412 120.535 152.332C120.417 153.565 120.417 153.565 120.297 154.823C120 157 120 157 119 160C118.37 159.842 117.74 159.683 117.091 159.52C112.905 158.816 108.781 158.765 104.543 158.684C103.189 158.652 103.189 158.652 101.807 158.621C98.9337 158.555 96.0606 158.496 93.1875 158.438C91.235 158.394 89.2825 158.351 87.3301 158.307C82.5535 158.2 77.7768 158.098 73 158C73.9782 155.818 74.7412 154.229 76.548 152.631C78.4001 150.551 78.3893 149.471 78.4199 146.716C78.4358 145.854 78.4517 144.993 78.4681 144.106C78.4684 142.713 78.4684 142.713 78.4688 141.293C78.4802 139.856 78.4802 139.856 78.4918 138.389C78.5026 136.361 78.5055 134.333 78.501 132.304C78.5 129.209 78.5416 126.116 78.5859 123.021C78.5911 121.049 78.5938 119.077 78.5938 117.105C78.6101 116.183 78.6265 115.261 78.6434 114.311C78.5954 109.817 78.3915 106.906 75.4629 103.368C74.6501 102.587 73.8374 101.805 73 101C74.3458 100.97 74.3458 100.97 75.7188 100.94C79.0811 100.861 82.4431 100.775 85.8052 100.683C87.254 100.645 88.7029 100.61 90.1519 100.578C99.5138 100.513 99.5138 100.513 108.688 98.8984C112.007 97.9981 113.757 97.9867 117 99ZM94 109C93.8015 111.545 93.7215 113.957 93.75 116.5C93.7423 117.19 93.7345 117.879 93.7266 118.59C93.6239 122.752 93.6239 122.752 96 126C99.2428 126.559 100.906 126.822 104 126C107.053 123.651 109.503 120.92 112 118C112.66 117.34 113.32 116.68 114 116C112.009 112.575 109.982 109.63 107 107C102.339 105.905 97.5273 105.473 94 109Z" fill="#014D4A"/>
<path d="M724.5 101.687C727.932 103.454 729.341 105.528 731 109C731.446 112.01 731.444 114.988 731.434 118.027C731.439 118.894 731.444 119.76 731.449 120.653C731.456 122.481 731.455 124.309 731.446 126.137C731.438 128.925 731.466 131.711 731.498 134.498C731.5 136.279 731.499 138.059 731.496 139.84C731.513 141.082 731.513 141.082 731.53 142.35C731.466 147.701 730.547 150.753 727 155C721.642 159.018 715.411 158.643 709 158C704.201 156.372 701.697 154.268 699 150C698.429 146.902 698.463 143.861 698.504 140.719C698.502 139.828 698.501 138.937 698.499 138.018C698.501 136.139 698.513 134.26 698.533 132.38C698.562 129.509 698.554 126.64 698.541 123.77C698.547 121.94 698.556 120.111 698.566 118.281C698.563 117.426 698.561 116.571 698.557 115.689C698.632 110.966 698.968 107.851 702 104C708.149 98.6199 717.193 98.3257 724.5 101.687ZM714 112C712.549 114.902 712.87 117.449 712.867 120.687C712.866 121.346 712.865 122.004 712.864 122.682C712.864 124.074 712.865 125.466 712.87 126.858C712.875 128.992 712.87 131.125 712.863 133.258C712.864 134.609 712.865 135.961 712.867 137.312C712.868 138.546 712.869 139.78 712.871 141.051C712.796 143.932 712.796 143.932 714 146C714.66 146 715.32 146 716 146C716 134.78 716 123.56 716 112C715.34 112 714.68 112 714 112Z" fill="#014D4A"/>
<path d="M793.309 102.637C796.097 104.884 797.756 107.351 798.289 110.953C798.413 113.316 798.442 115.661 798.434 118.027C798.439 118.894 798.444 119.76 798.449 120.653C798.456 122.481 798.455 124.309 798.446 126.137C798.438 128.925 798.466 131.711 798.498 134.498C798.5 136.279 798.499 138.059 798.496 139.84C798.513 141.082 798.513 141.082 798.53 142.35C798.466 147.701 797.547 150.753 794 155C788.638 159.022 782.415 158.634 776 158C770.689 156.293 768.636 153.85 766 149C765.439 145.951 765.438 142.969 765.469 139.875C765.463 138.577 765.463 138.577 765.457 137.253C765.454 135.431 765.462 133.609 765.479 131.787C765.5 129.008 765.479 126.232 765.453 123.453C765.456 121.677 765.461 119.901 765.469 118.125C765.461 117.3 765.453 116.475 765.444 115.624C765.53 110.302 766.435 107.2 770 103C777.545 98.4731 785.542 98.6966 793.309 102.637ZM781 112C781 123.22 781 134.44 781 146C781.66 146 782.32 146 783 146C784.451 143.098 784.13 140.551 784.133 137.312C784.134 136.654 784.135 135.996 784.136 135.318C784.136 133.926 784.135 132.534 784.13 131.142C784.125 129.008 784.13 126.875 784.137 124.742C784.136 123.391 784.135 122.039 784.133 120.687C784.132 119.454 784.131 118.22 784.129 116.949C784.204 114.068 784.204 114.068 783 112C782.34 112 781.68 112 781 112Z" fill="#014D4A"/>
<path d="M690.437 101.187C693.784 103.554 696.167 105.988 697.75 109.812C698.652 117.704 697.895 124.974 694.5 132.187C691.471 135.596 688.232 137.457 684.242 139.605C681.734 140.951 681.734 140.951 680 144C685.94 144 691.88 144 698 144C698 148.29 698 152.58 698 157C687.11 157 676.22 157 665 157C664.938 154.339 664.876 151.679 664.812 148.937C664.785 148.114 664.758 147.29 664.73 146.441C664.671 141.194 665.412 137.601 668 133C670.191 131.039 670.191 131.039 672.562 129.625C673.348 129.143 674.133 128.661 674.941 128.164C676.276 127.409 677.629 126.686 679 126C672.07 125.505 672.07 125.505 665 125C664.591 110.562 664.591 110.562 668 105C674.389 99.0897 682.295 98.3746 690.437 101.187ZM681 112C679.687 113.085 679.687 113.085 679.902 115.723C679.914 116.825 679.926 117.927 679.937 119.062C679.947 120.167 679.956 121.272 679.965 122.41C679.976 123.265 679.988 124.119 680 125C680.66 125 681.32 125 682 125C683.262 122.475 683.099 120.688 683.062 117.875C683.053 116.965 683.044 116.055 683.035 115.117C683.024 114.418 683.012 113.72 683 113C682.34 112.67 681.68 112.34 681 112Z" fill="#014D4A"/>
<path d="M758.5 101.562C762.515 103.916 763.811 106.468 765 111C765.754 117.088 764.916 121.617 762 127C761.34 127.33 760.68 127.66 760 128C760 128.66 760 129.32 760 130C760.681 130.65 760.681 130.65 761.375 131.312C764.518 134.577 765.148 137.968 765.312 142.375C765.179 146.841 764.356 150.124 762 154C756.865 158.261 752.388 158.567 745.809 158.32C740.79 157.748 738.076 156.164 734.688 152.5C731.275 147.444 731.923 142.908 732 137C736.95 137 741.9 137 747 137C747.33 139.64 747.66 142.28 748 145C748.33 145 748.66 145 749 145C749 141.7 749 138.4 749 135C747.02 134.67 745.04 134.34 743 134C743 130.7 743 127.4 743 124C744.98 123.67 746.96 123.34 749 123C749 119.7 749 116.4 749 113C748.67 113 748.34 113 748 113C747.67 115.64 747.34 118.28 747 121C742.05 121 737.1 121 732 121C731.554 109.991 731.554 109.991 735 105C741.509 98.9794 750.331 98.016 758.5 101.562Z" fill="#014D4A"/>
<path d="M207.766 119.102C211.832 122.556 214.132 125.901 214.602 131.242C214.64 132.786 214.647 134.331 214.625 135.875C214.615 136.676 214.605 137.478 214.595 138.303C214.383 143.619 213.813 147.583 209.949 151.52C203.067 156.746 196.987 158.918 188.254 158.547C181.359 157.388 175.638 154.286 171.23 148.844C168.437 144.696 168.189 140.967 168.313 136.063C168.332 134.868 168.332 134.868 168.352 133.65C168.59 128.295 169.292 124.354 173.195 120.414C173.791 119.947 174.386 119.481 175 119C175.534 118.554 176.067 118.108 176.617 117.648C185.762 111.674 198.951 113.928 207.766 119.102ZM188.313 121.938C184.278 125.536 184.086 129.668 183.75 134.875C183.907 139.358 184.227 143.84 186 148C188.654 150.453 188.654 150.453 192 151C194.909 150.372 194.909 150.372 197 148C199.96 140.466 198.886 133.209 197.25 125.438C196.166 122.842 196.166 122.842 193.688 121.438C190.96 120.774 190.96 120.774 188.313 121.938Z" fill="#014D4A"/>
<path d="M382.937 114.75C383.723 114.742 384.509 114.735 385.318 114.727C389.87 114.742 393.842 114.943 398 117C400.154 120.116 400.868 123.232 401 127C399.745 130.521 397.934 132.709 395 135C392.03 136.322 389.222 136.706 386 137C385.002 137.107 384.005 137.214 382.977 137.324C380.319 137.587 377.664 137.811 375 138C375.361 138.554 375.722 139.109 376.094 139.68C376.558 140.404 377.022 141.129 377.5 141.875C378.196 142.954 378.196 142.954 378.906 144.055C380 146 380 146 380 148C383.185 149.388 383.185 149.388 387 150C391.851 147.624 395.309 143.867 399 140C400.32 140.66 401.64 141.32 403 142C402.401 145.847 400.6 148.126 398.187 151.125C397.5 151.994 396.813 152.863 396.105 153.758C393.497 156.536 391.615 157.775 387.844 158.301C379.94 158.34 371.792 158.115 365.461 152.914C360.575 147.165 358.855 141.378 358.969 133.936C359.508 127.537 362.331 123.663 366.543 119.039C371.745 114.722 376.447 114.686 382.937 114.75ZM378.812 123.562C376.501 126.671 376.293 129.188 376 133C380.389 132.335 383.981 130.812 388 129C388.25 126.584 388.25 126.584 388 124C384.442 121.628 382.432 120.977 378.812 123.562Z" fill="#014D4A"/>
<path d="M144.852 114.84C157.454 114.52 157.454 114.52 163 117C164.756 120.593 165.628 124.024 165 128C163.5 130.312 163.5 130.312 161 132C158.241 132.332 155.796 132.186 153 132C152.67 129.36 152.34 126.72 152 124C149.142 123.315 149.142 123.315 146 123C142.261 125.493 142.021 126.681 141 131C140.142 137.107 140.972 141.332 144.578 146.387C146.623 148.707 147.885 149.696 151 150C155.931 147.585 158.292 144.582 161 140C165.75 140.875 165.75 140.875 168 142C166.103 148.07 162.372 153.275 157.25 157C149.475 159.392 140.271 158.695 133 155C127.536 150.391 124.676 145.241 124.053 138.066C123.857 130.458 125.716 124.849 130.75 119.02C135.328 114.91 139.028 115.082 144.852 114.84Z" fill="#014D4A"/>
<path d="M352 98C352.004 98.6676 352.007 99.3353 352.011 100.023C352.053 106.966 352.122 113.909 352.208 120.852C352.236 123.443 352.257 126.035 352.271 128.627C352.292 132.351 352.339 136.073 352.391 139.797C352.392 140.957 352.393 142.118 352.394 143.314C352.414 144.394 352.434 145.475 352.454 146.589C352.463 147.539 352.472 148.49 352.481 149.469C353.143 152.696 354.607 153.825 357 156C357 156.66 357 157.32 357 158C348.42 158 339.84 158 331 158C333 154 333 154 334.599 152.502C336.393 150.578 336.389 149.575 336.42 146.975C336.436 146.171 336.452 145.366 336.468 144.537C336.468 143.672 336.469 142.806 336.469 141.914C336.48 140.573 336.48 140.573 336.492 139.205C336.503 137.314 336.505 135.423 336.501 133.531C336.5 130.642 336.542 127.756 336.586 124.867C336.591 123.029 336.594 121.19 336.594 119.352C336.61 118.49 336.627 117.628 336.643 116.741C336.592 112.237 336.501 110.585 333.463 107.041C332.65 106.367 331.837 105.694 331 105C331 104.34 331 103.68 331 103C333.748 102.16 336.498 101.328 339.25 100.5C340.027 100.262 340.805 100.023 341.605 99.7773C342.36 99.5518 343.114 99.3262 343.891 99.0938C344.928 98.7795 344.928 98.7795 345.985 98.459C348 98 348 98 352 98Z" fill="#014D4A"/>
<path d="M688.25 69.75C689.167 69.7294 690.083 69.7088 691.027 69.6875C698.098 69.6472 704.212 70.2816 709.5 75.4375C711 78 711 78 711 82C709.272 82.0817 707.542 82.1395 705.812 82.1875C704.368 82.2397 704.368 82.2397 702.895 82.293C700 82 700 82 697.543 80.5078C694.34 78.6089 692.198 78.6314 688.5 78.6875C687.397 78.6914 686.293 78.6952 685.156 78.6992C682.055 78.9948 679.806 79.686 677 81C677.33 82.65 677.66 84.3 678 86C681.553 87.1843 684.802 87.184 688.5 87.1875C689.177 87.1998 689.854 87.212 690.551 87.2246C694.264 87.2356 695.83 87.1135 699 85C701.918 84.8047 701.918 84.8047 705.187 84.875C706.818 84.9021 706.818 84.9021 708.48 84.9297C709.728 84.9645 709.728 84.9645 711 85C710.278 89.3233 709.523 91.2388 706 94C700.208 96.6413 694.3 96.3314 688.062 96.3125C687.004 96.3286 685.945 96.3447 684.854 96.3613C677.54 96.3659 672.25 95.833 666.562 90.875C664.374 86.8484 664.339 83.4876 665 79C666.435 75.3323 667.545 74.2713 670.937 72.25C676.788 69.8621 681.989 69.7846 688.25 69.75Z" fill="#014D4A"/>
<path d="M758 71C762.894 70.908 767.785 70.8284 772.679 70.7803C774.342 70.7602 776.006 70.7329 777.669 70.6982C780.065 70.6495 782.459 70.627 784.855 70.6094C785.965 70.5784 785.965 70.5784 787.097 70.5468C790.73 70.5453 792.828 70.8946 795.95 72.8096C798.763 75.8159 798.929 77.9331 799 82C797.965 85.8819 797.416 86.7225 794 89C791.273 89.2271 791.273 89.2271 788.02 89.1953C786.274 89.1856 786.274 89.1856 784.494 89.1758C783.279 89.159 782.064 89.1423 780.812 89.125C779.586 89.116 778.359 89.107 777.096 89.0977C774.064 89.0741 771.032 89.0411 768 89C768 91.31 768 93.62 768 96C764.7 96 761.4 96 758 96C758 87.75 758 79.5 758 71ZM768 79C768 79.99 768 80.98 768 82C771.292 82.0579 774.583 82.0936 777.875 82.125C779.281 82.1501 779.281 82.1501 780.715 82.1758C781.611 82.1822 782.507 82.1887 783.43 82.1953C784.671 82.211 784.671 82.211 785.937 82.2271C788.224 82.193 788.224 82.193 790 80C787.599 78.7997 786.106 78.8854 783.43 78.9023C782.086 78.9072 782.086 78.9072 780.715 78.9121C779.778 78.9205 778.841 78.9289 777.875 78.9375C776.458 78.9443 776.458 78.9443 775.012 78.9512C772.674 78.963 770.337 78.9794 768 79Z" fill="#014D4A"/>
<path d="M735.759 69.9929C742.12 71.9696 744.65 77.425 747.812 82.9375C748.52 84.0879 749.231 85.2357 749.947 86.3808C755 94.6057 755 94.6057 755 96C753.042 96.0808 751.084 96.1391 749.125 96.1875C747.489 96.2397 747.489 96.2397 745.82 96.293C744.89 96.1963 743.959 96.0996 743 96C742.34 95.01 741.68 94.02 741 93C738.079 92.6972 735.417 92.5819 732.5 92.625C731.715 92.6134 730.93 92.6018 730.121 92.5898C727.577 92.5657 727.577 92.5657 724 93C723.34 93.99 722.68 94.98 722 96C719.18 96.293 719.18 96.293 715.875 96.1875C714.779 96.1604 713.684 96.1333 712.555 96.1055C711.29 96.0532 711.29 96.0532 710 96C711.587 92.9359 713.259 89.9778 715 87C715.548 86.0117 715.548 86.0117 716.107 85.0034C717.356 82.7826 718.671 80.6116 720 78.4375C720.396 77.7105 720.791 76.9834 721.198 76.2344C724.856 70.4715 729.083 69.5967 735.759 69.9929ZM732 79C731.01 80.98 730.02 82.96 729 85C731.31 85 733.62 85 736 85C734.515 82.03 734.515 82.03 733 79C732.67 79 732.34 79 732 79Z" fill="#014D4A"/>
<path d="M175 80C177.475 80.495 177.475 80.495 180 81C180.66 80.67 181.32 80.34 182 80C185.408 79.5235 188.598 79.4552 192 80C195.398 82.6506 196.65 84.0435 197.398 88.2266C197.601 92.892 197.111 96.333 194 100C190.585 102.561 187.144 102.301 183 102C182.01 101.34 181.02 100.68 180 100C179.67 103.3 179.34 106.6 179 110C177.68 110 176.36 110 175 110C175 100.1 175 90.2 175 80ZM180.625 85.125C178.727 88.4828 178.434 90.2028 179 94C180.461 96.8444 181.399 97.7626 184.375 98.9375C187.747 99.0178 189.303 97.9476 192 96C193.432 94.7841 193.432 94.7841 193.312 91.1875C193.263 88.1251 193.099 87.1527 191.375 84.5C187.221 81.8764 184.325 81.8149 180.625 85.125Z" fill="#014D4A"/>
<path d="M143 71C145.625 72.5625 145.625 72.5625 147 75C147.75 78.75 147.75 78.75 148 82C147.01 82 146.02 82 145 82C144.649 81.0306 144.299 80.0612 143.937 79.0625C142.256 75.6716 142.256 75.6716 138.562 74.9375C135.078 74.7312 135.078 74.7312 132.625 76.25C129.179 79.9613 129.721 84.5489 129.797 89.3242C130.059 92.7748 130.394 94.638 133 97C135.816 97.6981 138.191 97.7505 141 97C143.044 94.7328 143.044 94.7328 144 92C144.33 91.34 144.66 90.68 145 90C145.99 90 146.98 90 148 90C148.353 93.7935 148.284 95.5594 146.187 98.8125C143.175 101.824 141.37 101.976 137.125 102.25C133.316 102.194 131.006 101.475 128 99C125.448 94.754 125.633 90.8909 125.625 86.0625C125.6 85.2639 125.576 84.4653 125.551 83.6425C125.531 79.5745 125.675 77.5147 127.898 73.9961C132.242 69.8708 137.282 70.4078 143 71Z" fill="#014D4A"/>
<path d="M161 79.6875C161.866 79.6707 162.733 79.654 163.625 79.6367C166 80 166 80 167.77 81.0703C169.646 84.0136 169.529 86.7367 169.688 90.1875C169.786 92.096 169.786 92.096 169.887 94.043C169.924 95.0188 169.962 95.9946 170 97C170.99 97.33 171.98 97.66 173 98C173 98.99 173 99.98 173 101C172.043 100.983 172.043 100.983 171.066 100.965C170.24 100.956 169.414 100.947 168.563 100.938C167.739 100.926 166.915 100.914 166.066 100.902C164.008 100.767 164.008 100.767 163 102C155.502 102.424 155.502 102.424 152 100C150.601 97.2013 150.747 95.095 151 92C152.129 90.3203 152.129 90.3203 154 89C156.918 88.707 156.918 88.707 160.188 88.8125C161.274 88.8396 162.361 88.8666 163.481 88.8945C164.728 88.9467 164.728 88.9467 166 89C165.34 87.35 164.68 85.7 164 84C161.168 83.6655 161.168 83.6655 158 84C155.623 85.875 155.623 85.875 154 88C153.34 87.67 152.68 87.34 152 87C152.313 84.625 152.313 84.625 153 82C156.218 79.8545 157.268 79.7042 161 79.6875ZM156 92C155.67 93.65 155.34 95.3 155 97C157.218 98.3051 157.218 98.3051 160 99C162.821 98.0072 162.821 98.0072 165 96C165.33 94.68 165.66 93.36 166 92C162.7 92 159.4 92 156 92Z" fill="#014D4A"/>
<path d="M526.25 97.625C529 98 529 98 531.875 100.188C534 103 534 103 533.633 105.676C533.32 106.826 533.32 106.826 533 108C530.607 108.843 528.211 109.674 525.812 110.5C525.139 110.738 524.465 110.977 523.771 111.223C520.068 112.487 516.921 113.305 513 113C514.555 109.507 516.654 106.771 519.062 103.812C519.775 102.932 520.488 102.052 521.223 101.145C523.801 98.0331 523.801 98.0331 526.25 97.625Z" fill="#014D4A"/>
<path d="M384.582 97.5703C388.308 98.2324 389.767 100.045 392 103C391.633 105.676 391.633 105.676 391 108C388.586 108.841 386.169 109.673 383.75 110.5C383.068 110.738 382.386 110.977 381.684 111.223C378.236 112.394 375.683 113 372 113C373.394 109.032 375.239 106.009 377.812 102.688C378.479 101.804 379.145 100.921 379.832 100.012C382 98 382 98 384.582 97.5703Z" fill="#014D4A"/>
<path d="M314.582 97.5703C318.308 98.2324 319.767 100.045 322 103C321.633 105.676 321.633 105.676 321 108C318.586 108.841 316.169 109.673 313.75 110.5C313.068 110.738 312.386 110.977 311.684 111.223C308.236 112.394 305.683 113 302 113C303.394 109.032 305.239 106.009 307.812 102.688C308.479 101.804 309.145 100.921 309.832 100.012C312 98 312 98 314.582 97.5703Z" fill="#014D4A"/>
<path d="M218 134C223.61 134 229.22 134 235 134C235 136.31 235 138.62 235 141C229.39 141 223.78 141 218 141C218 138.69 218 136.38 218 134Z" fill="#014D4A"/>
</svg>
