<svg width="186" height="265" viewBox="0 0 186 265" fill="none" xmlns="http://www.w3.org/2000/svg">
<path d="M76.4 0.768829C32.4003 8.7688 0 47.8357 0 92.769C0 124.902 10.9337 147.302 50.1333 194.502C53.6 198.769 68.8 221.169 72.2667 227.436C74.1333 230.769 77.4667 238.502 79.7334 244.769C85.4666 260.902 86.8 263.436 90.1334 264.236C97.0667 265.969 99.0667 263.702 104.667 247.436C111.2 228.369 121.467 211.702 144.133 183.436C169.467 151.702 177.067 138.769 182.133 118.236C197.067 58.1025 156.8 2.3688 96.6667 0.102142C89.3334 -0.164524 80.2667 0.102164 76.4 0.768829ZM111.133 6.69998C112.867 7.23331 70.5334 14.4984 70.5334 15.0317C70.5334 17.165 77.8667 51.969 70.5334 58.2356C66.2667 62.1023 63.0667 65.7023 63.4667 66.2356C63.8667 66.9023 63.6 67.4356 62.8 67.4356C62.1334 67.4356 61.0667 66.9023 60.6667 66.1023C60.2667 65.4356 58.5333 64.1023 56.9333 63.3023L54 61.8356L57.0667 64.6356C58.6667 66.2356 60 67.8356 60 68.1023C60 70.7689 51.3333 83.3023 40.5333 96.2356C33.2 104.902 33.3666 101.436 29.5 106.102C25.6333 110.769 12.6667 128.769 12 128.769C9.46669 128.769 151.667 117.3 151 104.367C149.933 84.6335 114.1 73.1689 124.5 55.9689C128.1 50.1023 22.5334 37.9689 25.0667 38.5023C54 92.7688 37.1334 32.8668 26.1333 37.0356C24.2667 35.0356 84.9334 81.4063 90.1334 76.7396C106.8 61.5397 113.401 69.9689 136.2 66.1023C140.2 65.4356 112.133 11.2 111.133 6.69998ZM129.467 11.169C134.933 13.969 143.067 19.0356 147.6 22.5023C156.267 29.1689 144.133 63.3022 172 51.0356C172 52.9023 155.333 34.8668 165.2 62.1023C165.2 40.5404 154.492 18.2351 149.558 24.1017C144.625 29.9684 143.067 47.0356 139.6 51.0356C136.133 55.0356 132.933 99.969 131.467 101.702C137.533 57.8357 127.733 105.036 129.867 97.9689C134.667 82.2357 161.2 22.6317 144.133 15.0317C136.4 11.4317 86.5333 52.6356 80.2667 55.9689C77.7334 57.3023 75.6 58.1023 75.3334 57.8356C75.0667 57.569 124.267 48.369 129.467 42.1023C158.667 7.30242 118 6.10214 118.667 6.10214C119.067 6.10214 123.867 8.36898 129.467 11.169ZM72.2667 92.2356C90.5332 100.502 98.2666 72.0001 90 89.8667C88.2667 93.6001 120.933 114.236 120.133 114.636C111.467 78.3668 92.6 94.6356 87 101.702C77.5334 113.569 93.6 146.636 90 150.636C89.2 151.436 81.3333 160.902 72.4 171.569C55.0668 192.369 53 189.504 52 192.769C52 191.969 95.8667 202.369 82.6667 195.969C76.5334 188.102 102.9 185.8 98.5 178.867C93.9667 171.933 96.7369 33.8001 95.8036 32.8667C94.7369 31.5334 10.9333 133.302 12.9333 131.036C14.4 129.436 23.8668 118.236 34 106.102C64.6665 69.569 70.6667 63.3023 78 59.8356C86.6666 55.8356 63.8668 88.369 72.2667 92.2356ZM174.267 58.6356C173.867 59.7023 174 60.7689 174.667 61.0356C176.933 61.8356 181.333 82.369 181.333 92.2356C181.333 113.036 69.5999 175.645 56.9334 194.845C49.8667 205.245 100.067 259.838 97 262.504C94.8667 264.371 113.067 218.769 108.933 226.102C107.067 229.436 103.867 237.169 101.6 243.436C95.8667 259.569 85.1666 237.004 82.5 237.004C79.0334 237.004 101.2 273.45 96.6667 260.517C91.8667 247.05 74.1333 221.169 64.6667 207.436C60.9334 201.969 57.3333 196.769 56.9333 195.969C56.4 195.036 69.8667 221.495 72.2667 218.561C80.5333 208.295 104.667 189.169 92 151.436C92.5334 151.036 89.8667 211.836 93.3334 207.436C96.8 203.036 129.2 162.767 133.733 158.367C138.133 153.967 165.2 135.702 129.6 108.769C133.733 103.302 113.2 166.333 114.667 164.867C116 163.4 170.796 126.16 178.13 117.36C192.263 100.426 175.167 60.5043 176.5 60.5043C176.9 60.5043 174.667 57.569 174.267 58.6356Z" fill="#5CAF96"/>
<circle cx="93" cy="95" r="50" fill="#244C49"/>
</svg>
